<svg width="27" height="26" viewBox="0 0 27 26" fill="none" xmlns="http://www.w3.org/2000/svg">
<path d="M24.6282 26H2.09259C0.965812 26 0 25.0602 0 23.9639V2.03614C0 0.939759 0.965812 0 2.09259 0H24.6282C25.755 0 26.7208 0.939759 26.7208 2.03614V23.9639C26.7208 25.0602 25.755 26 24.6282 26Z" fill="#EA5A6E"/>
<path d="M12.5556 18.6386C8.37041 18.6386 4.8291 15.3494 4.8291 11.2771C4.8291 7.20482 8.20944 3.75903 12.5556 3.75903C16.9018 3.75903 20.2821 7.04819 20.2821 11.2771C20.2821 15.506 16.7408 18.6386 12.5556 18.6386ZM12.5556 5.9518C9.65816 5.9518 7.24363 8.3012 7.24363 11.2771C7.24363 14.253 9.65816 16.4458 12.5556 16.4458C15.453 16.4458 17.8676 14.0964 17.8676 11.2771C17.8676 8.45783 15.453 5.9518 12.5556 5.9518Z" fill="white"/>
<path d="M15.614 15.1929L21.7308 20.9881L15.614 17.8555L18.5115 15.1929L21.7308 20.9881" fill="white"/>
</svg>
